<svg xmlns="http://www.w3.org/2000/svg" version="1.1" viewBox="0 0 1309 799" width="1309" height="799"><defs></defs><g><g class="entity" data-entity="usuarios" data-qualified-name="usuarios" id="ent0002" data-source-line="8"><rect x="563.99" y="158" width="183.19" height="170" rx="2.50" ry="2.50" fill="#F1F1F1" stroke="#181818" stroke-width="0.50"></rect><text x="629.13" y="176" font-size="14" fill="#000000" xml:space="preserve" style="white-space: pre" font-family="sans-serif">usuarios</text><line x1="564.99" y1="184" x2="746.18" y2="184" stroke="#181818" stroke-width="0.50"></line><text x="569.99" y="201" font-size="14" fill="#000000" xml:space="preserve" style="white-space: pre" font-family="sans-serif">+id : int</text><text x="569.99" y="217" font-size="14" fill="#000000" xml:space="preserve" style="white-space: pre" font-family="sans-serif">nombre : varchar</text><text x="569.99" y="233" font-size="14" fill="#000000" xml:space="preserve" style="white-space: pre" font-family="sans-serif">apellido : varchar</text><text x="569.99" y="249" font-size="14" fill="#000000" xml:space="preserve" style="white-space: pre" font-family="sans-serif">nick : varchar</text><text x="569.99" y="265" font-size="14" fill="#000000" xml:space="preserve" style="white-space: pre" font-family="sans-serif">email : varchar</text><text x="569.99" y="281" font-size="14" fill="#000000" xml:space="preserve" style="white-space: pre" font-family="sans-serif">password : varchar</text><text x="569.99" y="297" font-size="14" fill="#000000" xml:space="preserve" style="white-space: pre" font-family="sans-serif">rol_id : int</text><text x="569.99" y="313" font-size="14" fill="#000000" xml:space="preserve" style="white-space: pre" font-family="sans-serif">fecha_creacion : timestamp</text><line x1="564.99" y1="320" x2="746.18" y2="320" stroke="#181818" stroke-width="0.50"></line></g><g class="entity" data-entity="roles" data-qualified-name="roles" id="ent0003" data-source-line="19"><rect x="596.68" y="7" width="117.82" height="74" rx="2.50" ry="2.50" fill="#F1F1F1" stroke="#181818" stroke-width="0.50"></rect><text x="640.42" y="25" font-size="14" fill="#000000" xml:space="preserve" style="white-space: pre" font-family="sans-serif">roles</text><line x1="597.68" y1="33" x2="713.50" y2="33" stroke="#181818" stroke-width="0.50"></line><text x="602.68" y="50" font-size="14" fill="#000000" xml:space="preserve" style="white-space: pre" font-family="sans-serif">+id : int</text><text x="602.68" y="66" font-size="14" fill="#000000" xml:space="preserve" style="white-space: pre" font-family="sans-serif">nombre : varchar</text><line x1="597.68" y1="73" x2="713.50" y2="73" stroke="#181818" stroke-width="0.50"></line></g><g class="entity" data-entity="clases" data-qualified-name="clases" id="ent0004" data-source-line="24"><rect x="336.99" y="405" width="183.19" height="170" rx="2.50" ry="2.50" fill="#F1F1F1" stroke="#181818" stroke-width="0.50"></rect><text x="408.74" y="423" font-size="14" fill="#000000" xml:space="preserve" style="white-space: pre" font-family="sans-serif">clases</text><line x1="337.99" y1="431" x2="519.18" y2="431" stroke="#181818" stroke-width="0.50"></line><text x="342.99" y="448" font-size="14" fill="#000000" xml:space="preserve" style="white-space: pre" font-family="sans-serif">+id : int</text><text x="342.99" y="464" font-size="14" fill="#000000" xml:space="preserve" style="white-space: pre" font-family="sans-serif">titulo : varchar</text><text x="342.99" y="480" font-size="14" fill="#000000" xml:space="preserve" style="white-space: pre" font-family="sans-serif">descripcion : text</text><text x="342.99" y="496" font-size="14" fill="#000000" xml:space="preserve" style="white-space: pre" font-family="sans-serif">deporte : varchar</text><text x="342.99" y="512" font-size="14" fill="#000000" xml:space="preserve" style="white-space: pre" font-family="sans-serif">profesor_id : int</text><text x="342.99" y="528" font-size="14" fill="#000000" xml:space="preserve" style="white-space: pre" font-family="sans-serif">es_premium : boolean</text><text x="342.99" y="544" font-size="14" fill="#000000" xml:space="preserve" style="white-space: pre" font-family="sans-serif">precio : decimal</text><text x="342.99" y="560" font-size="14" fill="#000000" xml:space="preserve" style="white-space: pre" font-family="sans-serif">fecha_creacion : timestamp</text><line x1="337.99" y1="567" x2="519.18" y2="567" stroke="#181818" stroke-width="0.50"></line></g><g class="entity" data-entity="asistencias" data-qualified-name="asistencias" id="ent0005" data-source-line="35"><rect x="7" y="660" width="113.18" height="122" rx="2.50" ry="2.50" fill="#F1F1F1" stroke="#181818" stroke-width="0.50"></rect><text x="28.96" y="678" font-size="14" fill="#000000" xml:space="preserve" style="white-space: pre" font-family="sans-serif">asistencias</text><line x1="8" y1="686" x2="119.18" y2="686" stroke="#181818" stroke-width="0.50"></line><text x="13" y="703" font-size="14" fill="#000000" xml:space="preserve" style="white-space: pre" font-family="sans-serif">+id : int</text><text x="13" y="719" font-size="14" fill="#000000" xml:space="preserve" style="white-space: pre" font-family="sans-serif">usuario_id : int</text><text x="13" y="735" font-size="14" fill="#000000" xml:space="preserve" style="white-space: pre" font-family="sans-serif">clase_id : int</text><text x="13" y="751" font-size="14" fill="#000000" xml:space="preserve" style="white-space: pre" font-family="sans-serif">fecha : datetime</text><text x="13" y="767" font-size="14" fill="#000000" xml:space="preserve" style="white-space: pre" font-family="sans-serif">asistio : boolean</text><line x1="8" y1="774" x2="119.18" y2="774" stroke="#181818" stroke-width="0.50"></line></g><g class="entity" data-entity="mensajes" data-qualified-name="mensajes" id="ent0006" data-source-line="43"><rect x="157.72" y="660" width="163.74" height="122" rx="2.50" ry="2.50" fill="#F1F1F1" stroke="#181818" stroke-width="0.50"></rect><text x="209.63" y="678" font-size="14" fill="#000000" xml:space="preserve" style="white-space: pre" font-family="sans-serif">mensajes</text><line x1="158.72" y1="686" x2="320.46" y2="686" stroke="#181818" stroke-width="0.50"></line><text x="163.72" y="703" font-size="14" fill="#000000" xml:space="preserve" style="white-space: pre" font-family="sans-serif">+id : int</text><text x="163.72" y="719" font-size="14" fill="#000000" xml:space="preserve" style="white-space: pre" font-family="sans-serif">remitente_id : int</text><text x="163.72" y="735" font-size="14" fill="#000000" xml:space="preserve" style="white-space: pre" font-family="sans-serif">clase_id : int</text><text x="163.72" y="751" font-size="14" fill="#000000" xml:space="preserve" style="white-space: pre" font-family="sans-serif">contenido : text</text><text x="163.72" y="767" font-size="14" fill="#000000" xml:space="preserve" style="white-space: pre" font-family="sans-serif">fecha_envio : timestamp</text><line x1="158.72" y1="774" x2="320.46" y2="774" stroke="#181818" stroke-width="0.50"></line></g><g class="entity" data-entity="pagos" data-qualified-name="pagos" id="ent0007" data-source-line="51"><rect x="358.88" y="660" width="161.42" height="122" rx="2.50" ry="2.50" fill="#F1F1F1" stroke="#181818" stroke-width="0.50"></rect><text x="420.52" y="678" font-size="14" fill="#000000" xml:space="preserve" style="white-space: pre" font-family="sans-serif">pagos</text><line x1="359.88" y1="686" x2="519.30" y2="686" stroke="#181818" stroke-width="0.50"></line><text x="364.88" y="703" font-size="14" fill="#000000" xml:space="preserve" style="white-space: pre" font-family="sans-serif">+id : int</text><text x="364.88" y="719" font-size="14" fill="#000000" xml:space="preserve" style="white-space: pre" font-family="sans-serif">usuario_id : int</text><text x="364.88" y="735" font-size="14" fill="#000000" xml:space="preserve" style="white-space: pre" font-family="sans-serif">clase_id : int</text><text x="364.88" y="751" font-size="14" fill="#000000" xml:space="preserve" style="white-space: pre" font-family="sans-serif">monto : decimal</text><text x="364.88" y="767" font-size="14" fill="#000000" xml:space="preserve" style="white-space: pre" font-family="sans-serif">fecha_pago : timestamp</text><line x1="359.88" y1="774" x2="519.30" y2="774" stroke="#181818" stroke-width="0.50"></line></g><g class="entity" data-entity="productos" data-qualified-name="productos" id="ent0008" data-source-line="59"><rect x="1099.43" y="413" width="200.32" height="154" rx="2.50" ry="2.50" fill="#F1F1F1" stroke="#181818" stroke-width="0.50"></rect><text x="1168.85" y="431" font-size="14" fill="#000000" xml:space="preserve" style="white-space: pre" font-family="sans-serif">productos</text><line x1="1100.43" y1="439" x2="1298.75" y2="439" stroke="#181818" stroke-width="0.50"></line><text x="1105.43" y="456" font-size="14" fill="#000000" xml:space="preserve" style="white-space: pre" font-family="sans-serif">+id : int</text><text x="1105.43" y="472" font-size="14" fill="#000000" xml:space="preserve" style="white-space: pre" font-family="sans-serif">nombre : varchar</text><text x="1105.43" y="488" font-size="14" fill="#000000" xml:space="preserve" style="white-space: pre" font-family="sans-serif">descripcion : text</text><text x="1105.43" y="504" font-size="14" fill="#000000" xml:space="preserve" style="white-space: pre" font-family="sans-serif">precio : decimal</text><text x="1105.43" y="520" font-size="14" fill="#000000" xml:space="preserve" style="white-space: pre" font-family="sans-serif">stock : int</text><text x="1105.43" y="536" font-size="14" fill="#000000" xml:space="preserve" style="white-space: pre" font-family="sans-serif">vendedor_id : int</text><text x="1105.43" y="552" font-size="14" fill="#000000" xml:space="preserve" style="white-space: pre" font-family="sans-serif">fecha_publicacion : timestamp</text><line x1="1100.43" y1="559" x2="1298.75" y2="559" stroke="#181818" stroke-width="0.50"></line></g><g class="entity" data-entity="pedidos" data-qualified-name="pedidos" id="ent0009" data-source-line="69"><rect x="991.43" y="652" width="172.32" height="138" rx="2.50" ry="2.50" fill="#F1F1F1" stroke="#181818" stroke-width="0.50"></rect><text x="1053.07" y="670" font-size="14" fill="#000000" xml:space="preserve" style="white-space: pre" font-family="sans-serif">pedidos</text><line x1="992.43" y1="678" x2="1162.75" y2="678" stroke="#181818" stroke-width="0.50"></line><text x="997.43" y="695" font-size="14" fill="#000000" xml:space="preserve" style="white-space: pre" font-family="sans-serif">+id : int</text><text x="997.43" y="711" font-size="14" fill="#000000" xml:space="preserve" style="white-space: pre" font-family="sans-serif">comprador_id : int</text><text x="997.43" y="727" font-size="14" fill="#000000" xml:space="preserve" style="white-space: pre" font-family="sans-serif">producto_id : int</text><text x="997.43" y="743" font-size="14" fill="#000000" xml:space="preserve" style="white-space: pre" font-family="sans-serif">cantidad : int</text><text x="997.43" y="759" font-size="14" fill="#000000" xml:space="preserve" style="white-space: pre" font-family="sans-serif">total : decimal</text><text x="997.43" y="775" font-size="14" fill="#000000" xml:space="preserve" style="white-space: pre" font-family="sans-serif">fecha_pedido : timestamp</text><line x1="992.43" y1="782" x2="1162.75" y2="782" stroke="#181818" stroke-width="0.50"></line></g><g class="entity" data-entity="suscripciones" data-qualified-name="suscripciones" id="ent0010" data-source-line="78"><rect x="556.44" y="668" width="200.30" height="106" rx="2.50" ry="2.50" fill="#F1F1F1" stroke="#181818" stroke-width="0.50"></rect><text x="614.18" y="686" font-size="14" fill="#000000" xml:space="preserve" style="white-space: pre" font-family="sans-serif">suscripciones</text><line x1="557.44" y1="694" x2="755.74" y2="694" stroke="#181818" stroke-width="0.50"></line><text x="562.44" y="711" font-size="14" fill="#000000" xml:space="preserve" style="white-space: pre" font-family="sans-serif">+id : int</text><text x="562.44" y="727" font-size="14" fill="#000000" xml:space="preserve" style="white-space: pre" font-family="sans-serif">usuario_id : int</text><text x="562.44" y="743" font-size="14" fill="#000000" xml:space="preserve" style="white-space: pre" font-family="sans-serif">clase_id : int</text><text x="562.44" y="759" font-size="14" fill="#000000" xml:space="preserve" style="white-space: pre" font-family="sans-serif">fecha_suscripcion : timestamp</text><line x1="557.44" y1="766" x2="755.74" y2="766" stroke="#181818" stroke-width="0.50"></line></g><g class="entity" data-entity="valoraciones" data-qualified-name="valoraciones" id="ent0011" data-source-line="85"><rect x="791.34" y="652" width="122.49" height="138" rx="2.50" ry="2.50" fill="#F1F1F1" stroke="#181818" stroke-width="0.50"></rect><text x="813.28" y="670" font-size="14" fill="#000000" xml:space="preserve" style="white-space: pre" font-family="sans-serif">valoraciones</text><line x1="792.34" y1="678" x2="912.83" y2="678" stroke="#181818" stroke-width="0.50"></line><text x="797.34" y="695" font-size="14" fill="#000000" xml:space="preserve" style="white-space: pre" font-family="sans-serif">+id : int</text><text x="797.34" y="711" font-size="14" fill="#000000" xml:space="preserve" style="white-space: pre" font-family="sans-serif">usuario_id : int</text><text x="797.34" y="727" font-size="14" fill="#000000" xml:space="preserve" style="white-space: pre" font-family="sans-serif">clase_id : int</text><text x="797.34" y="743" font-size="14" fill="#000000" xml:space="preserve" style="white-space: pre" font-family="sans-serif">puntuacion : int</text><text x="797.34" y="759" font-size="14" fill="#000000" xml:space="preserve" style="white-space: pre" font-family="sans-serif">comentario : text</text><text x="797.34" y="775" font-size="14" fill="#000000" xml:space="preserve" style="white-space: pre" font-family="sans-serif">fecha : timestamp</text><line x1="792.34" y1="782" x2="912.83" y2="782" stroke="#181818" stroke-width="0.50"></line></g><g class="link" data-entity-1="roles" data-entity-2="usuarios" data-entity-1-uid="ent0003" data-entity-2-uid="ent0002" id="lnk12" data-source-line="98" data-link-type="dependency"><path d="M655.59,87.13 C655.59,108.68 655.59,131 655.59,157.86" fill="none" stroke="#181818" stroke-width="1"></path><polygon points="655.59,81.13 651.59,90.13 655.59,86.13 659.59,90.13 655.59,81.13" fill="#181818" stroke="#181818" stroke-width="1"></polygon><text x="656.59" y="124" font-size="13" fill="#000000" xml:space="preserve" style="white-space: pre" font-family="sans-serif">rol_id</text><text x="647.99" y="101.08" font-size="13" fill="#000000" xml:space="preserve" style="white-space: pre" font-family="sans-serif">1</text><text x="635.80" y="146.90" font-size="13" fill="#000000" xml:space="preserve" style="white-space: pre" font-family="sans-serif">0..*</text></g><g class="link" data-entity-1="usuarios" data-entity-2="clases" data-entity-1-uid="ent0002" data-entity-2-uid="ent0004" id="lnk13" data-source-line="100" data-link-type="dependency"><path d="M558.6567,303.104 C535.3367,319.954 516.45,336.3 497.59,358 C485.54,371.87 474.83,388.22 465.67,404.57" fill="none" stroke="#181818" stroke-width="1"></path><polygon points="563.52,299.59 553.88,301.62 559.47,302.52 558.57,308.10 563.52,299.59" fill="#181818" stroke="#181818" stroke-width="1"></polygon><text x="498.59" y="371" font-size="13" fill="#000000" xml:space="preserve" style="white-space: pre" font-family="sans-serif">profesor_id</text><text x="548.62" y="300.66" font-size="13" fill="#000000" xml:space="preserve" style="white-space: pre" font-family="sans-serif">1</text><text x="448.98" y="393.87" font-size="13" fill="#000000" xml:space="preserve" style="white-space: pre" font-family="sans-serif">0..*</text></g><g class="link" data-entity-1="usuarios" data-entity-2="asistencias" data-entity-1-uid="ent0002" data-entity-2-uid="ent0005" id="lnk14" data-source-line="102" data-link-type="dependency"><path d="M557.6404,245.6537 C440.4504,252.5737 245.99,282.61 136.59,405 C73.46,475.63 61.84,590.02 61.25,659.78" fill="none" stroke="#181818" stroke-width="1"></path><polygon points="563.63,245.30 554.41,241.84 558.64,245.59 554.88,249.82 563.63,245.30" fill="#181818" stroke="#181818" stroke-width="1"></polygon><text x="137.59" y="494.50" font-size="13" fill="#000000" xml:space="preserve" style="white-space: pre" font-family="sans-serif">usuario_id</text><text x="548.73" y="241.87" font-size="13" fill="#000000" xml:space="preserve" style="white-space: pre" font-family="sans-serif">1</text><text x="40.91" y="648.83" font-size="13" fill="#000000" xml:space="preserve" style="white-space: pre" font-family="sans-serif">0..*</text></g><g class="link" data-entity-1="clases" data-entity-2="asistencias" data-entity-1-uid="ent0004" data-entity-2-uid="ent0005" id="lnk15" data-source-line="103" data-link-type="dependency"><path d="M331.5476,543.9123 C254.2076,586.2723 158.61,639.23 140.59,652 C133.9,656.74 127.12,661.98 120.51,667.37" fill="none" stroke="#181818" stroke-width="1"></path><polygon points="336.81,541.03 326.99,541.85 332.42,543.43 330.84,548.86 336.81,541.03" fill="#181818" stroke="#181818" stroke-width="1"></polygon><text x="216.99" y="618" font-size="13" fill="#000000" xml:space="preserve" style="white-space: pre" font-family="sans-serif">clase_id</text><text x="321.63" y="541.77" font-size="13" fill="#000000" xml:space="preserve" style="white-space: pre" font-family="sans-serif">1</text><text x="128.22" y="657.30" font-size="13" fill="#000000" xml:space="preserve" style="white-space: pre" font-family="sans-serif">0..*</text></g><g class="link" data-entity-1="usuarios" data-entity-2="mensajes" data-entity-1-uid="ent0002" data-entity-2-uid="ent0006" id="lnk16" data-source-line="105" data-link-type="dependency"><path d="M557.7168,254.8068 C462.9368,270.1168 324.3,307.87 246.59,405 C189.09,476.86 204.15,590.33 221.23,659.67" fill="none" stroke="#181818" stroke-width="1"></path><polygon points="563.64,253.85 554.12,251.34 558.70,254.65 555.39,259.23 563.64,253.85" fill="#181818" stroke="#181818" stroke-width="1"></polygon><text x="247.59" y="494.50" font-size="13" fill="#000000" xml:space="preserve" style="white-space: pre" font-family="sans-serif">remitente_id</text><text x="548.75" y="267.37" font-size="13" fill="#000000" xml:space="preserve" style="white-space: pre" font-family="sans-serif">1</text><text x="199.21" y="649.14" font-size="13" fill="#000000" xml:space="preserve" style="white-space: pre" font-family="sans-serif">0..*</text></g><g class="link" data-entity-1="clases" data-entity-2="mensajes" data-entity-1-uid="ent0004" data-entity-2-uid="ent0006" id="lnk17" data-source-line="106" data-link-type="dependency"><path d="M355.2001,579.9269 C332.1501,607.8469 310.79,633.74 289.51,659.51" fill="none" stroke="#181818" stroke-width="1"></path><polygon points="359.02,575.30 350.21,579.69 355.84,579.16 356.37,584.79 359.02,575.30" fill="#181818" stroke="#181818" stroke-width="1"></polygon><text x="335.09" y="618" font-size="13" fill="#000000" xml:space="preserve" style="white-space: pre" font-family="sans-serif">clase_id</text><text x="345.98" y="594.98" font-size="13" fill="#000000" xml:space="preserve" style="white-space: pre" font-family="sans-serif">1</text><text x="274.96" y="648.96" font-size="13" fill="#000000" xml:space="preserve" style="white-space: pre" font-family="sans-serif">0..*</text></g><g class="link" data-entity-1="usuarios" data-entity-2="pagos" data-entity-1-uid="ent0002" data-entity-2-uid="ent0007" id="lnk18" data-source-line="108" data-link-type="dependency"><path d="M638.1687,334.2665 C617.7087,437.9765 584.46,597.43 568.59,622 C561.42,633.1 542.12,649.27 520.57,665.27" fill="none" stroke="#181818" stroke-width="1"></path><polygon points="639.33,328.38 633.66,336.44 638.36,333.29 641.51,337.98 639.33,328.38" fill="#181818" stroke="#181818" stroke-width="1"></polygon><text x="624.35" y="494.50" font-size="13" fill="#000000" xml:space="preserve" style="white-space: pre" font-family="sans-serif">usuario_id</text><text x="630.70" y="348.07" font-size="13" fill="#000000" xml:space="preserve" style="white-space: pre" font-family="sans-serif">1</text><text x="528.37" y="656.84" font-size="13" fill="#000000" xml:space="preserve" style="white-space: pre" font-family="sans-serif">0..*</text></g><g class="link" data-entity-1="clases" data-entity-2="pagos" data-entity-1-uid="ent0004" data-entity-2-uid="ent0007" id="lnk19" data-source-line="109" data-link-type="dependency"><path d="M425.2746,581.26 C425.2346,596.82 425.59,606.91 426.59,622 C427.4,634.24 428.77,647.29 430.33,659.74" fill="none" stroke="#181818" stroke-width="1"></path><polygon points="425.29,575.26 421.27,584.25 425.28,580.26 429.27,584.27 425.29,575.26" fill="#181818" stroke="#181818" stroke-width="1"></polygon><text x="427.59" y="618" font-size="13" fill="#000000" xml:space="preserve" style="white-space: pre" font-family="sans-serif">clase_id</text><text x="417.74" y="594.94" font-size="13" fill="#000000" xml:space="preserve" style="white-space: pre" font-family="sans-serif">1</text><text x="409.19" y="648.79" font-size="13" fill="#000000" xml:space="preserve" style="white-space: pre" font-family="sans-serif">0..*</text></g><g class="link" data-entity-1="usuarios" data-entity-2="productos" data-entity-1-uid="ent0002" data-entity-2-uid="ent0008" id="lnk20" data-source-line="111" data-link-type="dependency"><path d="M753.3351,267.2067 C826.5151,286.3267 924.59,316.14 1009.59,358 C1040.5,373.22 1072.09,393 1100.4,412.56" fill="none" stroke="#181818" stroke-width="1"></path><polygon points="747.53,265.69 755.23,271.84 752.37,266.95 757.25,264.10 747.53,265.69" fill="#181818" stroke="#181818" stroke-width="1"></polygon><text x="1038.27" y="371" font-size="13" fill="#000000" xml:space="preserve" style="white-space: pre" font-family="sans-serif">vendedor_id</text><text x="755.14" y="263.90" font-size="13" fill="#000000" xml:space="preserve" style="white-space: pre" font-family="sans-serif">1</text><text x="1072.08" y="402.26" font-size="13" fill="#000000" xml:space="preserve" style="white-space: pre" font-family="sans-serif">0..*</text></g><g class="link" data-entity-1="usuarios" data-entity-2="pedidos" data-entity-1-uid="ent0002" data-entity-2-uid="ent0009" id="lnk21" data-source-line="113" data-link-type="dependency"><path d="M752.7854,293.7139 C802.0854,321.9739 856.22,358.53 899.59,405 C918.37,425.12 994.85,565.31 1041.24,651.75" fill="none" stroke="#181818" stroke-width="1"></path><polygon points="747.58,290.73 753.40,298.68 751.92,293.22 757.38,291.74 747.58,290.73" fill="#181818" stroke="#181818" stroke-width="1"></polygon><text x="999.88" y="494.50" font-size="13" fill="#000000" xml:space="preserve" style="white-space: pre" font-family="sans-serif">comprador_id</text><text x="755.20" y="290.94" font-size="13" fill="#000000" xml:space="preserve" style="white-space: pre" font-family="sans-serif">1</text><text x="1017.54" y="640.84" font-size="13" fill="#000000" xml:space="preserve" style="white-space: pre" font-family="sans-serif">0..*</text></g><g class="link" data-entity-1="productos" data-entity-2="pedidos" data-entity-1-uid="ent0008" data-entity-2-uid="ent0009" id="lnk22" data-source-line="114" data-link-type="dependency"><path d="M1156.1489,572.5454 C1141.5889,599.8754 1128.1,625.18 1113.93,651.78" fill="none" stroke="#181818" stroke-width="1"></path><polygon points="1158.97,567.25 1151.21,573.31 1156.62,571.66 1158.27,577.07 1158.97,567.25" fill="#181818" stroke="#181818" stroke-width="1"></polygon><text x="1139.59" y="618" font-size="13" fill="#000000" xml:space="preserve" style="white-space: pre" font-family="sans-serif">producto_id</text><text x="1147.91" y="587.06" font-size="13" fill="#000000" xml:space="preserve" style="white-space: pre" font-family="sans-serif">1</text><text x="1097.72" y="640.87" font-size="13" fill="#000000" xml:space="preserve" style="white-space: pre" font-family="sans-serif">0..*</text></g><g class="link" data-entity-1="usuarios" data-entity-2="suscripciones" data-entity-1-uid="ent0002" data-entity-2-uid="ent0010" id="lnk23" data-source-line="116" data-link-type="dependency"><path d="M682.2953,334.2283 C701.7053,411.2983 720.51,522.26 699.59,622 C696.37,637.37 690.59,653.26 684.29,667.67" fill="none" stroke="#181818" stroke-width="1"></path><polygon points="680.83,328.41 679.15,338.11 682.05,333.26 686.91,336.16 680.83,328.41" fill="#181818" stroke="#181818" stroke-width="1"></polygon><text x="709.43" y="494.50" font-size="13" fill="#000000" xml:space="preserve" style="white-space: pre" font-family="sans-serif">usuario_id</text><text x="675.64" y="348.10" font-size="13" fill="#000000" xml:space="preserve" style="white-space: pre" font-family="sans-serif">1</text><text x="667.65" y="656.88" font-size="13" fill="#000000" xml:space="preserve" style="white-space: pre" font-family="sans-serif">0..*</text></g><g class="link" data-entity-1="clases" data-entity-2="suscripciones" data-entity-1-uid="ent0004" data-entity-2-uid="ent0010" id="lnk24" data-source-line="117" data-link-type="dependency"><path d="M515.5737,579.6414 C530.9037,595.1814 542.6,606.97 557.59,622 C572.45,636.9 588.64,652.99 603.55,667.74" fill="none" stroke="#181818" stroke-width="1"></path><polygon points="511.36,575.37 514.83,584.59 514.87,578.93 520.53,578.97 511.36,575.37" fill="#181818" stroke="#181818" stroke-width="1"></polygon><text x="558.59" y="618" font-size="13" fill="#000000" xml:space="preserve" style="white-space: pre" font-family="sans-serif">clase_id</text><text x="510.93" y="595.06" font-size="13" fill="#000000" xml:space="preserve" style="white-space: pre" font-family="sans-serif">1</text><text x="576.57" y="656.96" font-size="13" fill="#000000" xml:space="preserve" style="white-space: pre" font-family="sans-serif">0..*</text></g><g class="link" data-entity-1="usuarios" data-entity-2="valoraciones" data-entity-1-uid="ent0002" data-entity-2-uid="ent0011" id="lnk25" data-source-line="119" data-link-type="dependency"><path d="M733.3833,333.09 C751.1633,356.66 765.01,378.36 777.59,405 C815.39,485.07 835.07,585.84 844.61,651.54" fill="none" stroke="#181818" stroke-width="1"></path><polygon points="729.77,328.30 732.00,337.89 732.78,332.29 738.38,333.08 729.77,328.30" fill="#181818" stroke="#181818" stroke-width="1"></polygon><text x="831.53" y="494.50" font-size="13" fill="#000000" xml:space="preserve" style="white-space: pre" font-family="sans-serif">usuario_id</text><text x="728.63" y="347.98" font-size="13" fill="#000000" xml:space="preserve" style="white-space: pre" font-family="sans-serif">1</text><text x="823.92" y="640.96" font-size="13" fill="#000000" xml:space="preserve" style="white-space: pre" font-family="sans-serif">0..*</text></g><g class="link" data-entity-1="clases" data-entity-2="valoraciones" data-entity-1-uid="ent0004" data-entity-2-uid="ent0011" id="lnk26" data-source-line="120" data-link-type="dependency"><path d="M525.6352,562.8422 C534.5752,568.3622 538.57,570.41 547.59,575 C642.53,623.33 682.24,598.88 774.59,652 C780.2,655.22 785.77,658.89 791.2,662.8" fill="none" stroke="#181818" stroke-width="1"></path><polygon points="520.53,559.69 526.09,567.82 524.78,562.32 530.29,561.01 520.53,559.69" fill="#181818" stroke="#181818" stroke-width="1"></polygon><text x="703.78" y="618" font-size="13" fill="#000000" xml:space="preserve" style="white-space: pre" font-family="sans-serif">clase_id</text><text x="528.14" y="561.65" font-size="13" fill="#000000" xml:space="preserve" style="white-space: pre" font-family="sans-serif">1</text><text x="764.03" y="652.20" font-size="13" fill="#000000" xml:space="preserve" style="white-space: pre" font-family="sans-serif">0..*</text></g></g></svg>